<svg xml:space="preserve" width="32" height="32" xmlns="http://www.w3.org/2000/svg"><path style="fill:#012a51;fill-opacity:.998849;stroke-width:.395045" transform="rotate(90)" d="M25.5-26c.831 0 1.5.731 1.5 1.64v16.72C27-6.73 26.331-6 25.5-6S24-6.731 24-7.64v-16.72c0-.909.669-1.64 1.5-1.64Z"/><path style="fill:#012a51;fill-opacity:.998849;stroke-width:.216375" transform="scale(-1)" d="M-7.5-27c.831 0 1.5.608 1.5 1.363v3.274C-6-21.608-6.669-21-7.5-21S-9-21.608-9-22.363v-3.274C-9-26.392-8.331-27-7.5-27ZM-24.5-27c.831 0 1.5.608 1.5 1.363v3.274c0 .755-.669 1.363-1.5 1.363s-1.5-.608-1.5-1.363v-3.274c0-.755.669-1.363 1.5-1.363Z"/><path style="color:#000;fill:#012a51;fill-opacity:.998849;stroke-width:1.04346;stroke-linecap:round;stroke-linejoin:round;-inkscape-stroke:none" d="M8.522 14.522h14.956l-7.383 8.383z"/><path style="color:#000;fill:#012a51;stroke-linecap:round;stroke-linejoin:round;-inkscape-stroke:none" d="M8.521 14a.522.522 0 0 0-.386.871l7.572 8.383a.522.522 0 0 0 .78-.004l7.382-8.383a.522.522 0 0 0-.39-.867Zm1.174 1.043h12.63l-6.235 7.078z"/><path style="fill:#012a51;stroke-width:.435325" d="M15.516 6h.968C17.324 6 18 6.676 18 7.516v6.968c0 .84-.676 1.516-1.516 1.516h-.968c-.84 0-1.516-.676-1.516-1.516V7.516C14 6.676 14.676 6 15.516 6Z"/></svg>