<?xml version="1.0" encoding="UTF-8" standalone="no"?>
<svg
   width="100"
   height="100"
   viewBox="0 0 75 75"
   version="1.1"
   id="svg16"
   sodipodi:docname="key-reverse.svg"
   inkscape:version="1.1.2 (0a00cf5339, 2022-02-04, custom)"
   xmlns:inkscape="http://www.inkscape.org/namespaces/inkscape"
   xmlns:sodipodi="http://sodipodi.sourceforge.net/DTD/sodipodi-0.dtd"
   xmlns="http://www.w3.org/2000/svg"
   xmlns:svg="http://www.w3.org/2000/svg">
  <sodipodi:namedview
     id="namedview18"
     pagecolor="#ffffff"
     bordercolor="#666666"
     borderopacity="1.0"
     inkscape:pageshadow="2"
     inkscape:pageopacity="0.0"
     inkscape:pagecheckerboard="0"
     showgrid="false"
     width="100px"
     inkscape:zoom="7.81"
     inkscape:cx="104.80154"
     inkscape:cy="50"
     inkscape:window-width="1920"
     inkscape:window-height="1011"
     inkscape:window-x="0"
     inkscape:window-y="1472"
     inkscape:window-maximized="1"
     inkscape:current-layer="svg16" />
  <defs
     id="defs8">
    <clipPath
       id="a">
      <path
         d="M 376,331 H 869 V 824 H 376 Z"
         id="path2" />
    </clipPath>
    <clipPath
       id="b">
      <path
         d="M 600,65.629 65.63,599.999 600,1134.369 1134.37,599.999 Z"
         id="path5" />
    </clipPath>
  </defs>
  <g
     clip-path="url(#a)"
     transform="matrix(0.1477784,0,0,0.14785923,-54.533109,-47.868809)"
     style="fill:#012a51;fill-opacity:1;stroke-width:0.494863"
     id="g14">
    <g
       clip-path="url(#b)"
       style="fill:#012a51;fill-opacity:1;stroke-width:0.494863"
       id="g12">
      <path
         d="m 565.27,546.03 c -22.441,-56.641 -10.688,-122.91 34.734,-168.32 61.453,-61.453 161.38,-61.988 222.83,-0.535 61.45,61.453 61.453,160.84 0,222.3 -45.422,45.422 -112.22,57.71 -168.86,35.27 l -53.973,53.973 h -44.887 v 44.887 h -44.887 v 44.887 H 465.34 v 44.887 h -88.707 v -88.707 z m 213.21,-79.621 c 12.289,-12.289 12.289,-32.598 0,-44.887 -12.289,-12.289 -32.598,-12.289 -44.887,0 -12.293,12.289 -12.293,32.598 0,44.887 12.289,12.293 32.594,12.293 44.887,0 z"
         style="fill:#012a51;fill-opacity:1;stroke-width:0.494863"
         id="path10" />
    </g>
  </g>
</svg>
